<svg width="140" height="21" viewBox="0 0 140 21" fill="none" xmlns="http://www.w3.org/2000/svg">
<path d="M0.886719 0.390625H18.5361V3.3322H21.4777V18.04H18.5361V20.9816H0.886719V0.390625ZM9.71143 18.04H18.5361V3.3322H9.71143V18.04Z" fill="white"/>
<path d="M24.4135 0.390625H45.0045V3.3322H33.2382V9.21533H45.0045V12.1569H33.2382V18.04H45.0045V20.9816H24.4135V0.390625Z" fill="white"/>
<path d="M47.9403 0.390625H56.765V18.04H59.7066V15.0985H62.6482V12.1569H65.5898V0.390625H68.5313V12.1569H65.5898V15.0985H62.6482V18.04H59.7066V20.9816H47.9403V0.390625Z" fill="white"/>
<path d="M71.4672 0.390625H92.0581V3.3322H86.175V18.04H92.0581V20.9816H71.4672V18.04H77.3503V3.3322H71.4672V0.390625Z" fill="white"/>
<path d="M94.994 0.390625H97.9355V6.27377H100.877V9.21533H103.819V12.1569H106.76V0.390625H115.585V20.9816H106.76V15.0985H103.819V12.1569H100.877V9.21533H97.9355V20.9816H94.994V0.390625Z" fill="white"/>
<path d="M118.521 0.390625H139.112V3.3322H127.345V18.04H136.17V12.1569H133.229V9.21533H139.112V20.9816H118.521V0.390625Z" fill="white"/>
</svg>
