<svg width="86" height="86" viewBox="0 0 86 86" fill="none" xmlns="http://www.w3.org/2000/svg">
<rect x="21.9004" y="25.2305" width="7.04163" height="7.04163" fill="#30333E"/>
<rect x="14.8555" y="32.2734" width="7.04163" height="7.04163" fill="#30333E"/>
<rect width="7.04163" height="7.04163" transform="matrix(1 0 0 -1 21.9004 60.4375)" fill="#30333E"/>
<rect width="7.04163" height="7.04163" transform="matrix(1 0 0 -1 14.8555 53.3984)" fill="#30333E"/>
<rect width="7.04163" height="7.04163" transform="matrix(1 0 0 -1 7.81445 46.3555)" fill="#30333E"/>
<rect x="36.3672" y="46.0195" width="6.33747" height="6.33747" fill="#30333E"/>
<rect x="33.1992" y="52.3555" width="6.33747" height="6.33747" fill="#30333E"/>
<rect x="46.5117" y="27.0078" width="6.33747" height="6.33747" fill="#30333E"/>
<rect x="43.3418" y="33.3438" width="6.33747" height="6.33747" fill="#30333E"/>
<rect x="40.1738" y="39.6836" width="6.33747" height="6.33747" fill="#30333E"/>
<rect width="7.04163" height="7.04163" transform="matrix(-1 0 0 1 64.1621 25.2305)" fill="#30333E"/>
<rect width="7.04163" height="7.04163" transform="matrix(-1 0 0 1 71.207 32.2734)" fill="#30333E"/>
<rect x="64.1621" y="60.4375" width="7.04163" height="7.04163" transform="rotate(180 64.1621 60.4375)" fill="#30333E"/>
<rect x="71.207" y="53.3984" width="7.04163" height="7.04163" transform="rotate(180 71.207 53.3984)" fill="#30333E"/>
<rect x="78.248" y="46.3555" width="7.04163" height="7.04163" transform="rotate(180 78.248 46.3555)" fill="#30333E"/>
</svg>
