<svg width="80" height="80" viewBox="0 0 80 80" fill="none" xmlns="http://www.w3.org/2000/svg">
<path d="M33.5669 29.2669C36.1444 26.6894 36.1444 22.5106 33.5669 19.9331C30.9894 17.3556 26.8106 17.3556 24.2331 19.9331L9.9331 34.2331C7.35564 36.8106 7.35563 40.9894 9.93309 43.5669L10.965 44.5988C13.0236 46.6574 16.3611 46.6574 18.4196 44.5988C19.7847 43.2337 21.9981 43.2337 23.3632 44.5988C24.7283 45.964 24.7283 48.1773 23.3632 49.5424C21.3046 51.6009 21.3046 54.9385 23.3632 56.997L24.2331 57.8669C26.8106 60.4444 30.9894 60.4444 33.5669 57.8669L51.1669 40.2669C52.2345 39.1993 53.9655 39.1993 55.0331 40.2669C56.1007 41.3345 56.1007 43.0655 55.0331 44.1331L48.4331 50.7331C45.8556 53.3106 45.8556 57.4894 48.4331 60.0669C51.0105 62.6444 55.1894 62.6444 57.7669 60.0669L70.9669 46.8669C73.5444 44.2894 73.5444 40.1106 70.9669 37.5331L70.1135 36.6797C68.047 34.6132 64.6966 34.6132 62.6302 36.6797C61.265 38.0448 59.0517 38.0448 57.6866 36.6797C56.3215 35.3146 56.3215 33.1013 57.6866 31.7361L57.7669 31.6559C59.789 29.6337 59.789 26.3552 57.7669 24.3331C55.1894 21.7556 51.0106 21.7556 48.4331 24.3331L31.3831 41.3831C30.0117 42.7545 27.7883 42.7545 26.4169 41.3831C25.0455 40.0117 25.0455 37.7883 26.4169 36.4169L33.5669 29.2669Z" fill="#30333E"/>
</svg>
