<svg width="42" height="40" viewBox="0 0 42 40" fill="none" xmlns="http://www.w3.org/2000/svg">
<path fill-rule="evenodd" clip-rule="evenodd" d="M10.3892 14.3637H9.19888H9.19862V17.0083H9.19888H10.1245V17.0087H9.46567H8.14335V19.6533H7.4822V20.9754H6.16221L6.16221 21.3722H4.83989V20.7111H3.51758V22.0334H4.83989V22.6945H6.16221L6.16221 22.2978H7.4822V22.298V23.3557H6.16221L6.16221 23.7524H4.83989V24.4136H3.51758V25.7359H4.83989V25.0748H6.16221L6.16221 24.678H7.4822V24.9426H8.5403V27.1905H10.1245V28.248H12.2397V29.1736H14.8843V30.2315H17.5289V30.8926H20.1736H22.8182V30.2315H25.4628V29.1736H28.1075V28.248H29.4303V27.1904H31.545V24.9425H32.0739H32.6033V22.2979V19.6532H32.0739V17.0086H30.7516V14.364H30.2239V14.3637H29.0333V11.7191H27.9757V10H25.3311V11.7191H23.7441V13.1736H21.2325V14.3637H20.0421V17.0083H20.0419V14.3637H18.8513V13.1736H16.2066L16.2066 11.7191H14.7526V10H12.108V11.7191H10.3892V14.3637ZM32.6038 22.2978H33.9262V22.6945H35.2485V22.0334H36.5708V20.7111H35.2485V21.3722H33.9262V20.9754H32.6038V22.2978ZM33.9262 24.678H32.6038V23.3557H33.9262V23.7524H35.2485V24.4136H36.5708V25.7359H35.2485V25.0748H33.9262V24.678ZM15.9057 18.727V19.3881H16.5829V20.7426H15.9057V21.4038H14.5512V20.7426H13.874V19.3881H14.5512V18.727H15.9057ZM26.3376 18.727V19.3881H27.0149V20.7426H26.3376V21.4038H24.9832V20.7426H24.306V19.3881H24.9832V18.727H26.3376ZM21.0558 24.0485H19.7014V22.6941H21.0558V24.0485ZM22.1398 25.8833H22.8171V26.5445H23.4943V27.2057H24.1715V26.5445H24.8487V25.8673H24.1715V26.5284H23.4943V25.8673H22.8171V25.2061H22.1398V25.8673H21.4626V26.5284H20.7854V25.8673H20.1082V26.5445H20.7854V27.2057H21.4626V26.5445H22.1398V25.8833Z" fill="white"/>
</svg>
