<svg width="16" height="16" viewBox="0 0 16 16" fill="none" xmlns="http://www.w3.org/2000/svg">
<rect width="16" height="16" rx="8" fill="#FB3B49"/>
<path fill-rule="evenodd" clip-rule="evenodd" d="M9 11C9 11.2652 8.89464 11.5196 8.70711 11.7071C8.51957 11.8946 8.26522 12 8 12C7.73478 12 7.48043 11.8946 7.29289 11.7071C7.10536 11.5196 7 11.2652 7 11C7 10.7348 7.10536 10.4804 7.29289 10.2929C7.48043 10.1054 7.73478 10 8 10C8.26522 10 8.51957 10.1054 8.70711 10.2929C8.89464 10.4804 9 10.7348 9 11ZM8.75 4.75C8.75 4.55109 8.67098 4.36032 8.53033 4.21967C8.38968 4.07902 8.19891 4 8 4C7.80109 4 7.61032 4.07902 7.46967 4.21967C7.32902 4.36032 7.25 4.55109 7.25 4.75V8.25C7.25 8.44891 7.32902 8.63968 7.46967 8.78033C7.61032 8.92098 7.80109 9 8 9C8.19891 9 8.38968 8.92098 8.53033 8.78033C8.67098 8.63968 8.75 8.44891 8.75 8.25V4.75Z" fill="white"/>
</svg>
