<svg width="40" height="40" viewBox="0 0 40 40" fill="none" xmlns="http://www.w3.org/2000/svg">
  <defs>
    <clipPath id="rounded-corner">
      <rect width="40" height="40" rx="8" ry="8"/>
    </clipPath>
  </defs>

  <g clip-path="url(#rounded-corner)">
    <rect width="40" height="40" fill="#3853EA"/>
    
    <rect x="10.1914" y="11.7344" width="3.27518" height="3.27518" fill="white"/>
    <rect x="6.91602" y="15.0078" width="3.27518" height="3.27518" fill="white"/>
    <rect width="3.27518" height="3.27518" transform="matrix(1 0 0 -1 10.1914 28.1094)" fill="white"/>
    <rect width="3.27518" height="3.27518" transform="matrix(1 0 0 -1 6.91602 24.8359)" fill="white"/>
    <rect width="3.27518" height="3.27518" transform="matrix(1 0 0 -1 3.64062 21.5586)" fill="white"/>
    <rect x="16.9219" y="21.4062" width="2.94766" height="2.94766" fill="white"/>
    <rect x="15.4482" y="24.3555" width="2.94766" height="2.94766" fill="white"/>
    <rect x="21.6396" y="12.5625" width="2.94766" height="2.94766" fill="white"/>
    <rect x="20.165" y="15.5117" width="2.94766" height="2.94766" fill="white"/>
    <rect x="18.6914" y="18.457" width="2.94766" height="2.94766" fill="white"/>
    <rect width="3.27518" height="3.27518" transform="matrix(-1 0 0 1 29.8428 11.7344)" fill="white"/>
    <rect width="3.27518" height="3.27518" transform="matrix(-1 0 0 1 33.1182 15.0078)" fill="white"/>
    <rect x="29.8428" y="28.1094" width="3.27518" height="3.27518" transform="rotate(180 29.8428 28.1094)" fill="white"/>
    <rect x="33.1182" y="24.8359" width="3.27518" height="3.27518" transform="rotate(180 33.1182 24.8359)" fill="white"/>
    <rect x="36.3936" y="21.5586" width="3.27518" height="3.27518" transform="rotate(180 36.3936 21.5586)" fill="white"/>
  </g>
</svg>
